<svg id="Слой_2" data-name="Слой 2" xmlns="http://www.w3.org/2000/svg" viewBox="0 0 421.44 499.59"><defs><style>.cls-1{fill:#c0c8d8;}.cls-2{fill:#a9b9d3;}.cls-3{fill:#3c5868;}.cls-4{fill:#253746;}.cls-5,.cls-6{fill:#dac8c2;}.cls-5{stroke:#ccbbb1;stroke-width:7.2px;}.cls-11,.cls-5{stroke-miterlimit:10;}.cls-7{fill:#ccbbb1;}.cls-8{fill:#212121;}.cls-9{fill:#eadc36;}.cls-10{fill:#324b5b;}.cls-11{fill:#f7f7f7;stroke:#c64b4b;stroke-linecap:round;stroke-width:1.65px;}.cls-12{font-size:33.01px;fill:#c64b4b;font-family:RobotoSlab-Regular, Roboto Slab;}</style></defs><title>Masterm</title><g id="shirt"><path class="cls-1" d="M269.67,272.27l9.15,12s2,15.54,1.91,25.06c0,0,0,26.67-1.7,40.5-1.27,10.58-6.36,32.17-10.79,43.34s-9.94,24-14.44,32.22-15.59,26.89-15.59,26.89-7.05-37.19-9.55-48.78-7.55-35.19-7.55-35.19V331Z" transform="translate(-0.2 0)"/><path class="cls-2" d="M152.29,271.07l-9.27,12s-2.05,15.54-2,25.06c0,0,0,26.67,1.67,40.5,1.27,10.58,6.35,32.17,10.77,43.34s9.93,24,14.43,32.22,15.59,26.89,15.59,26.89,7.3-37.19,9.8-48.78,7.8-35.19,7.8-35.19V329.85Z" transform="translate(-0.2 0)"/></g><g id="body"><polygon class="cls-3" points="272.18 378.73 210.69 351.09 147.55 378.73 209.86 323.45 272.18 378.73"/><path class="cls-3" d="M208.71,497.75a19.47,19.47,0,0,1-13.13-9.42c-9.17-15.84,0-44.84.14-45.13l.06-.19,11.91-130.8,11.81-3.59v22.22l.14.33A19.23,19.23,0,0,0,224.5,338l30,27-19.74-10L219.33,367.4l17.8,89.66,2.39-4.24c.82-1.46,20.19-35.9,25.71-48.28,6.79-15.23,11.45-33.23,15.12-58.35,3.28-22.5,1.61-47.69.71-57.68,10.8,8.52,24.41,14.91,35.38,19.64,6.06,2.61,20.29,7.44,34.06,12.11,15.71,5.33,32,10.84,35.5,12.85,6.22,3.51,14,30.45,19.63,50.12l.11.39c5.56,19.32,12.45,63,13.86,72.15Z" transform="translate(-0.2 0)"/><path class="cls-4" d="M283.19,292.38c10.34,7.43,22.52,13.12,32.53,17.42,6.12,2.63,19.76,7.26,34.2,12.16,14.91,5.06,31.8,10.79,35.2,12.71,1,.58,3.92,3.38,8.84,17,3.43,9.47,6.89,21.49,9.94,32.09l.11.39c5.24,18.21,11.69,58.32,13.55,70.22L208.74,495.91a17.43,17.43,0,0,1-11.6-8.47c-8.77-15.14.2-43.4.29-43.68l.12-.38,0-.4,11.78-129.39,8.33-2.53v20.16l.28.66a21,21,0,0,0,5.31,7.5l19.92,17.94L236.6,354l-2.07-1-1.81,1.45-13.67,11-1.7,1.37.43,2.14,16.64,83.82,1.89,9.54,4.77-8.48c.82-1.46,20.23-36,25.78-48.43,6.86-15.39,11.56-33.53,15.25-58.83,3-20.34,2-42.33,1.08-54.07m-4.37-8.07s3.93,32.84-.27,61.63-9.43,45.43-15,57.88-25.63,48.13-25.63,48.13L221.3,368.12l13.67-11,30.8,15.61-40.06-36.08a17.32,17.32,0,0,1-4.4-6.21V306.19L206,310.84l-12,131.8S177.69,493,208.7,499.59l212.94-42.4s-7.87-52.18-14.17-74.07-13.68-47.68-20.58-51.58S330,312,317.14,306.49s-27.52-12.6-38.32-22.19Z" transform="translate(-0.2 0)"/><path class="cls-4" d="M156.07,371.57l40.06-36.08a17.32,17.32,0,0,0,4.4-6.21h0V305l8.68,24.76V499.59L.2,456s7.87-52.18,14.17-74.07S28.05,334.23,35,330.34s56.85-19.49,69.74-25S132.22,292.7,143,283.1c0,0-3.93,32.84.27,61.63s9.43,45.43,15,57.88,25.63,48.13,25.63,48.13l16.64-83.82-13.67-11Z" transform="translate(-0.2 0)"/></g><g id="face"><path class="cls-5" d="M275.5,235.08s-7.2,10.4-8.6,29-2.6,24.59-7,30.79-25.19,27-33,30.39-21.19,4.2-29.39,0-24.23-16.16-31.79-26.19c-9.8-13-10.11-26.85-12.6-38.39-2.83-13.16-5.4-36-5.4-36s28.79-4.2,35.79-4.6,50.78-1,54-1,18.59,2,23.79,4.4S275.5,235.08,275.5,235.08Z" transform="translate(-0.2 0)"/><path class="cls-6" d="M211.23,296.69a42.18,42.18,0,0,1-10.86-1.28c-12.11-3.66-23-14.09-28.38-20-6.82-7.44-23.46-31.53-29.65-49.14-5.8-16.52-7.08-54.81-7.26-61.47L154,132l129.3-7.17c.35,5.46,1.2,17,3,33.85,0,.68.06,1.41.1,2.19a193.56,193.56,0,0,1-2.84,46.24c-4,22.92-11.44,40.18-24.06,56-11.44,14.3-24,28.13-38,32.39a36.35,36.35,0,0,1-10.24,1.27Z" transform="translate(-0.2 0)"/><path class="cls-7" d="M280,128.58c.44,6.23,1.27,16.4,2.72,30.33q0,1,.1,2.1A190.24,190.24,0,0,1,280,206.45c-3.91,22.3-11.1,39.05-23.32,54.33C245.61,274.63,233.54,288,220.43,292a33.26,33.26,0,0,1-9.2,1.12,37.71,37.71,0,0,1-9.82-1.12c-11.28-3.41-21.61-13.35-26.76-19-6.65-7.25-22.88-30.74-28.9-47.9-5.38-15.34-6.76-50.63-7-59.36l17.47-30.3L280,128.58m6.73-7.58L151.9,128.47,131.47,163.9s.89,44.79,7.49,63.58,23.79,43.18,30.39,50.38,17.64,17.26,30,21a45,45,0,0,0,11.9,1.43,40.22,40.22,0,0,0,11.29-1.43c14.48-4.39,27-17.59,39.79-33.59s20.63-33.85,24.79-57.58a201.68,201.68,0,0,0,2.79-49.31C287.34,134,286.72,121,286.72,121Z" transform="translate(-0.2 0)"/><path class="cls-8" d="M345,316.5s-19.12-19.83-24.54-52.25-8.59-86.44-31-115.94c-12.62-31.44-80.46-56-80.46-56l-77,54.48S112.11,173.33,109.77,191s-7,83.33-18.67,103-13.94,21.19-13.94,21.19S130.19,299,143,283.1l8.53-11.1s-2.19-20.75-4.62-27.37-10-19.25-12.25-38.44-1.31-10.69-1.31-10.69,48.92,1,81.08-17.5,43.92-37.39,43.92-37.39S267.9,166,275.5,175.67s12.1,13.27,12.1,13.27-1.5,15.65-3.25,26.06-8.08,27.83-11,33.67-3.68,23.6-3.68,23.6,7.44,11.07,10.77,13.94c8.4,7.25,28.51,17.49,38.79,21.67C325.53,310.43,345,316.5,345,316.5Z" transform="translate(-0.2 0)"/></g><g id="hat"><path class="cls-9" d="M352.15,152a10.42,10.42,0,0,1-5,12.41,12.41,12.41,0,0,1-5.65,1.43,13.59,13.59,0,0,1-7.71-2.47,8.88,8.88,0,0,1-3.28-9.77l6.8-23.42a1.22,1.22,0,0,0-.77-1.51,15.9,15.9,0,0,1,1.4-30.57,1.25,1.25,0,0,0,1-1.21V49.27A1.24,1.24,0,0,0,337.67,48L320,47.77a1.24,1.24,0,0,1-1.22-1.24h0a1.24,1.24,0,0,1,1-1.22l1.32-.24.22,0h21.29a1.24,1.24,0,0,1,1.24,1.24l.06,50.54a1.25,1.25,0,0,0,1,1.21,15.9,15.9,0,0,1,1.15,30.74,1.22,1.22,0,0,0-.79,1.54Z" transform="translate(-0.2 0)"/><polygon class="cls-3" points="132.42 100.73 35.11 69.22 210.21 4.48 385.38 69.45 288.23 101.33 132.42 100.73"/><path class="cls-4" d="M210.41,9,372.85,69.21,287.77,97.12l-154.48-.59L48.13,69,210.41,9m.08-9L26.11,68v2.7l105.71,34.19,157.44.6L395.11,70.89V68.34L210.49,0Z" transform="translate(-0.2 0)"/><path class="cls-10" d="M285.23,139.31c-9.63-5.37-30.34-11.6-74.65-12l-3.54,0c-41.16,0-61.26,6.58-70.74,11.83l.85-57.5c1.63-3.13,14.12-22.09,77.36-22.09,52.1,0,67.68,18.14,70.41,22Z" transform="translate(-0.2 0)"/><path class="cls-4" d="M214.52,64c28.91,0,45.75,5.59,54.78,10.39,6.48,3.44,9.9,6.82,11.41,8.64l.27,49.73-1.07-.44c-15.22-5.82-38.54-8.92-69.31-9.2l-3.57,0c-34.32,0-54.6,4.57-66.45,9.39l.73-49.83c.84-1.18,3.34-4,8.9-7.2,9.31-5.29,28-11.47,64.28-11.47h-.39m.39-9C140.75,55,133,80.56,133,80.56l-1,67.05s10.8-16.16,75.07-16.16c1.15,0,2.31,0,3.5,0,71.77.64,78.94,16.8,78.94,16.8l-.37-68.14S276.52,55,214.52,55Z" transform="translate(-0.2 0)"/></g><g id="mag"><polygon class="cls-11" points="334.51 381.18 336.38 378.87 337.87 381.45 340.09 379.45 341.15 382.24 343.65 380.61 344.27 383.53 347 382.32 347.15 385.29 350.03 384.52 349.72 387.49 352.68 387.17 351.91 390.05 354.89 390.21 353.68 392.93 356.59 393.55 354.97 396.05 357.75 397.12 355.76 399.33 358.34 400.82 356.02 402.7 358.34 404.57 355.76 406.06 357.75 408.28 354.97 409.35 356.59 411.85 353.68 412.47 354.89 415.19 351.91 415.34 352.68 418.22 349.72 417.91 350.03 420.88 347.15 420.1 347 423.08 344.27 421.87 343.65 424.78 341.15 423.16 340.09 425.94 337.87 423.95 336.38 426.53 334.51 424.21 332.63 426.53 331.14 423.95 328.93 425.94 327.86 423.16 325.36 424.78 324.74 421.87 322.01 423.08 321.86 420.1 318.98 420.88 319.29 417.91 316.33 418.22 317.1 415.34 314.12 415.19 315.34 412.47 312.42 411.85 314.04 409.35 311.26 408.28 313.26 406.06 310.67 404.57 312.99 402.7 310.67 400.82 313.26 399.33 311.26 397.12 314.04 396.05 312.42 393.55 315.34 392.93 314.12 390.21 317.1 390.05 316.33 387.17 319.29 387.49 318.98 384.52 321.86 385.29 322.01 382.32 324.74 383.53 325.36 380.61 327.86 382.24 328.93 379.45 331.14 381.45 332.63 378.87 334.51 381.18"/><text class="cls-12" transform="translate(319.09 414.82)">М</text></g></svg>