<?xml version="1.0" encoding="utf-8"?>
<!-- Generator: Adobe Illustrator 19.2.1, SVG Export Plug-In . SVG Version: 6.00 Build 0)  -->
<svg version="1.1" id="Layer_1" xmlns="http://www.w3.org/2000/svg" xmlns:xlink="http://www.w3.org/1999/xlink" x="0px" y="0px"
	 viewBox="0 0 1400 980" style="enable-background:new 0 0 1400 980;" xml:space="preserve">
<style type="text/css">
	.st0{fill: white;}
</style>
<path class="st0" d="M749.6,671.4c35.1,73.3,85.9,106.3,6.3,141.7s11.9,147.1-35.1,160.7c-47,13.4,8.8-93.2-29.5-138
	c-38.2-44.9,131.3-55.9-24.6-126.6s-32.6-46.8-37.8-74.2c-30.9-44.7-5.4-82-6.3-96.8c-0.2,0.2-0.4,0.4-0.6,0.6
	c-12.9-30.8-28.3-62.8-25.9-97c2.1-29.8,5.6-22.2-1.3-54.1c-3-14.2-9.7-40.3-8.4-52.9c-3.2-4.3-2.1-12.5-2.8-19.6
	c-10.6-5.8-33.4-0.6-43.8-31.3h1.3l33.9-65.1l0.7-3.7l-44.2-18.1l-3.4,7.5c-1.3,3.5-0.7,4.5-2.6,8.6l-16.4,0.4
	c-1.7-6.3-2.1-11.4-6-16c-12.9-0.2-33.9,1.7-42.1-1.9l-6.5,11.7l16.6,43.8c4.1,5.8,6.3,16,8.6,22.2c6,17,4.5,8.6,23.1,11.9
	c-17.9,36-80.5,38.2-90.8-0.7l6.9-0.4l32.1-77.9l-0.2-0.4c-9.3-8.4-7.5-22.7,17.2-14.9c12.9,4.1,31.7,1.5,46.2,1.9
	c0.9-18.6-25.4-57.1-28.7-95.3c-3.2-37.8,40.3-43.6,46.8-16.2c1.3,5.8,2.4,10.3-0.9,15.1c-3.5,5-7.6,2.8-10.6,5.8
	c0.2,25.4-1.3,21.6,9.9,41.2c6,10.4,11,25.5,22.9,30.6c13.1,5.4,28,7.5,42.1,9.5c16,2.2,31.3,11.7,40.3,11.4
	c4.8-8,7.6-11.6,0.7-19.4l-16.6-16.6c-11.7-10.1-12.7-11.6-19.2-22.9c-11.2-20.1,19-71.6,48.3-73.1c24.2-1.3,45.9,20.9,54.1,31.9
	c30,39.2,0,38.4-0.2,63.9c11,8.8,17.3,7.5,22.7,15.8c0.7,12.9-3.9,11-10.3,19.9c8.2,4.3,21.3,6.7,23.9,16.6
	c3.5,12.9-8,21.1-14.4,26.5c10.1,25.2,16.4,62.1,33.4,78.7l70.8,41.9c5.8-6.5,4.7-10.6,14.5-11.9c10.1-1.5,16.2,3.4,19,8.9
	c7.8,15.8-5.6,19.2-14,26.3c4.7,4.8,6.3,9.1,8.6,16.2c-4.8,3.7-3,1.7-12.7,1.3c-0.2,8.4-1.9,16.2,0.4,23.1c2.2,6.9,8.9,9.5,0.7,19.9
	c-3.9,4.8-12.1,7.1-17.7,1.9c-5.2-5-2.8-10.8-8-18.1c-9.3,2.2-6.5,4.5-18.8,18.8c-7.8,9.1-10.1,13.4-17.7,22l-17.2,20.7
	c-0.4,0.6-3.2,5.8-3.2,5.8c-1.3,6,0.2,3.4,0.9,9.7c-0.6,3.7-2.6,1.9-3.5,5.6c11,15.8,11.2,15.8,4.8,27.2c3.7,6.5,6.3,14,7.8,22
	C783.9,593.1,705.8,580.1,749.6,671.4L749.6,671.4z M1043.5,669.2c12.1,5.8,49.2,0.2,66,0.7c-11.6,0.2-54.6,3-65.1,12.1
	c16.2,4.8,71.4,30.9,99.6-16.8c-31.1-17.9-43.8-33.7-88.4-3L1043.5,669.2c1.1-3.5,24.2-50.2,26.8-52.9c5-5.6,17.9-7.6,28.2-11
	c9.5-3,19.2-6.9,28.9-9.1l-52.8,23.5c42.3,15.1,76.1-9.9,87.6-36.5c-15.7-6.2-34.7-13.1-53.3-4.3c-17,8-22.2,22.4-35.2,29.8
	c13.4-39,24.4-65.4,32.6-108.9c21.3-112.4,1.1-253.4-63-342.9l2.1-3.9c0.4-0.7,1.7-3.2,2.2-3.9c10.4-19.4,11.4-46.4-0.6-61.2
	c-11.4,20.3-13.1,30.9-8.4,58.4c-4.1-3.5-1.9-1.3-5.8-5.6l-10.8-14.2c0.4-0.6,0.9-1.5,1.1-1.9s0.9-1.3,1.1-1.9
	c0.4-0.7,1.7-3,2.2-3.9c1.3-2.6,1.7-3.2,2.8-6.3c4.3-13.4,3.7-37.3-7.3-47.2c-10.8,16.2-11,28-5.4,49l-5.6-0.6c-5,0,0-2.2-4.1,0.4
	l8.4,12.5c-23.7-4.1-36.4-4.3-44.7,14.4c22,9.1,34.7,8.2,47-8.8c10.4,7.8,14.5,16.2,20.1,28.2c-29.6-12.9-32.6-10.1-51.1,7.5
	c21.3,15.8,29.1,11.2,51.3,2.1c-5.6-4.8,2.1-1.9-9.9-4.7c-2.2-0.6-7.3-0.2-8.9-0.4c4.5-0.2,7.3,0.2,11.7-0.9
	c5.2-1.3,4.1-1.5,6.9-3.4c12.3,19,30.6,51.6,36.9,76.6c-24.4-10.6-41.4-26.1-67.1-0.7c12.3,17.9,43.3,27,65.4,9.1l-18.3-5.4
	l21.6-1.1c27.4,98.8,42.7,170.4,18.3,276.9l-8.4,29.1c-2.1,4.3-2.2,4.3-3.9,6.5c-6.3-40.5-19.8-65.4-59.7-73.3
	c6,41.2,21.3,69.5,56.5,77.9l-8.9-15.7c7.8,6.7,3.2,6.3,13.4,10.8c-4.1,22.9-15.7,46.1-25.4,65.8c-6.2,12.3-22.4,43.6-33,52
	l-16-31.1c10.8,12.1,10.3,17.2,18.6,25c-3.2-48.1-19-82.2-60.4-92.7c3.7,50.5,19.8,83.3,57.6,98.8c-8.9,26.3-87.3,96.4-122.7,106.1
	c-3.5-6.5-1.7-3.7-5.8-8.8c0.4-0.2,1.1,0,1.3,0c15.5,0,0.7,4.5,6.5,0c-12.9-41.2-16.8-59.7-61-68.4c7.3,43.3,22.2,66.9,58.7,77.4
	l-0.9,13.4c10.8,6,22.2-2.8,32.3-9.3c39.7-24.8,67.5-57.8,72.9-60.8c7.5,9.3,36.7,15.3,45.9,20.9l-47.2-12.3
	c6.2,11.7,21.8,27.2,37.3,33.4c22.9,9.1,39.9,3.5,60.8-3.5c-28.3-57.4-62.6-42.9-97-38.4c4.1-13.4,0-2.8,8.6-13.4L1043.5,669.2
	L1043.5,669.2z M1057.3,200.3l-28.5,1.1c4.1,0,11.2-0.2,14.7,0.4l12.7,4.1c-13.4,10.4-28.5,12.9-44.4,4.1c-8.4-4.7-7.6-5-11.4-10.6
	c6-4.1,15.5-12.5,27.6-12.7C1040.3,186.5,1049.6,191.9,1057.3,200.3L1057.3,200.3z M1067.7,193.6c-6-9.9-7.5-23.9-5.4-38.8
	c2.1-14.5,8.4-25,17.5-31.1C1091.9,141,1086.5,183.1,1067.7,193.6L1067.7,193.6z M1087.6,234.4l6.9-24.8
	c-3.5,10.6-4.1,14.2-11.6,21.1c0.9-33.2,6.9-67.3,31.5-72c1.9,15.3,1.1,30.4-3.4,44.6C1107,215.8,1099.2,228.8,1087.6,234.4
	L1087.6,234.4z M1088.4,292.4l-26.7-4.3c12.3,5.8,18.6,3.4,28.3,12.5c-40.1,7.8-51.3,3-71.6-21.8c8.2-9.3,23.7-14.7,38.6-10.8
	C1071.8,271.9,1080.4,281.4,1088.4,292.4L1088.4,292.4z M1098.5,348.5l-24.2-6c3.9,2.4,8.4,3.5,12.3,5.2l12.3,7.6
	c-26.7,4.8-55.9,6.7-71.4-28c12.9-3.7,26.7-11.2,42.1-4.8C1080.9,327.3,1094.5,340.1,1098.5,348.5L1098.5,348.5z M1102.6,406.9
	l-34.5-14.5c9.7,4.8,25.4,12.9,32.8,21.4c-32.6,7.5-59.7-15.3-66-39.5C1066.8,366,1088.2,377,1102.6,406.9L1102.6,406.9z
	 M1116.4,342.5c-7.6-34.3,8.2-69.7,39.7-79.4c-0.9,17.2-2.4,34.5-9.3,48.8C1140.2,325,1127.2,338.6,1116.4,342.5L1116.4,342.5z
	 M1120.1,405.9l-2.2-14.4c5.8-27.4,21.1-58.9,49-57.1C1161.1,372.7,1150.9,395.1,1120.1,405.9L1120.1,405.9z M1104.6,288.5l-3.9-5.6
	c0.7-40.3,9.3-66.2,38.2-77.2C1142.6,246.9,1128.5,272.3,1104.6,288.5L1104.6,288.5z M1113.8,473.8c10.8-33,20.3-59.1,60.2-60.8
	c-6.3,31.1-29.8,71.8-52.8,65.3l-4.5-2.4C1116.4,475.7,1114.7,474.4,1113.8,473.8L1113.8,473.8z M1098.6,482.9
	c-10.4-3.7-6.9-3.2-15.8-9.5c6.3,10.4,7.1,4.8,13.2,15.8c-38.6-3.5-54.6-23.1-64.7-57.8C1072.4,426.1,1086.7,453.9,1098.6,482.9
	L1098.6,482.9z M967.2,72c-9.5-6.3-5.8-5.6-16.8-9.9c-5.2,14.9-16.4,21.3-38.8,18.5c3.7-16.8,9.5-16.6,22.9-24.1
	c-18.3-2.4-24.8-12.1-27.6-29.3c25.9-7.6,24.4,6.2,35.8,17.7c-1.9-7.3-3.4-11.4-3.5-19.2c-0.4-11.4,1.5-14.2,6.3-19.4
	c16,17.7,11.9,33.6,7.1,54.8C961.4,64.9,962.5,64.6,967.2,72c7.6-12.9-8.2-2.1,1.3-53.9c20.3,14.5,15.3,41.6,6.9,60.8
	c8.6,5.2,11,9.5,19.4,14.5c-4.3-13.8-9.5-28.2-4.1-44c3.2-9.1,2.4-6.7,7.8-11.6c9.9,19.6,12.3,32.4,5.6,52.6
	c-4.7,14.5-7.6,3.5,1.9,19c-22-7.3-13.2,25.4-56.7,8.6c6.7-15.7,20.1-25.7,44.7-15.8c-4.3-9.7-11-13.6-17.5-21.3
	c-10.6,8.6-14.2,24.6-44,17.2c-4.1-17.2,14.7-24.6,37.7-20.5L967.2,72L967.2,72z M901.6,901.7c-4.5-22.7-17.9-54.1-2.4-87.6
	l8.6-12.1l3.7-0.4c8.9,8.4,12.7,41.2,12.1,52.9c-0.7,11.4-7.8,33.7-15.5,41.8C901.8,903.2,910.3,895.9,901.6,901.7L901.6,901.7z
	 M1099.8,557.3c6.9-13.4,13.8-15.1,22.2-25.7c-9.9,8-14.5,13.2-25,18.6c8.8-36.2,28.5-58.2,68.4-58.9
	C1158.1,527.3,1136.3,552.3,1099.8,557.3L1099.8,557.3z M1057.8,607.9l-3.9,2.6c-21.6,10.1-49-38-52.2-84.3
	C1042,534.2,1051.1,565.9,1057.8,607.9L1057.8,607.9z M944.6,744.9c-3.9,1.7,3.7-2.1-3.7,1.9l-13.1-5.2c-3.5-3.5-5.8-5.6-9.1-9.1
	c-5.6-6-10.4-13.2-14.2-22.4c-8.9-21.6-9.5-42.3-8.9-66.7C934.6,659.7,943.9,692.9,944.6,744.9L944.6,744.9z M988.5,705l-3.9,4.1
	c-35.2-15.5-48.7-49.6-50-100.9C971.9,610.8,989.6,667,988.5,705L988.5,705z M1051.7,829c-49,0-75.9-25-87.6-63.4
	c12.1,7.1,19,13.4,31.3,19.4c-4.7-6-1.3-1.9-6.7-6.7l-19-17.2c-0.6-0.6-1.3-1.5-1.9-2.2C1020,762.6,1039.4,782.9,1051.7,829
	L1051.7,829z M964.2,900c-37.5-34.7-32.6-81.5-28-120.1c7.1,9.7,16.2,55,17.9,64.9l-11-66.9c11.7,10.1,23.5,32.1,28.5,50.7
	C976.2,846.1,977.6,884.9,964.2,900L964.2,900z M324.5,669.2l27.8,35.8c8.6,10.6,4.5,0,8.6,13.4c-34.3-4.5-68.6-19.2-97,38.4
	c20.9,7.3,37.8,12.9,60.8,3.5c15.5-6.2,31.1-21.8,37.3-33.4l-47.2,12.3c9.3-5.6,38.4-11.6,45.9-20.9c5.4,3,33.2,36,72.9,60.8
	c10.3,6.3,21.6,15.1,32.3,9.3l-0.9-13.4c36.5-10.4,51.5-34.1,58.7-77.4c-44.2,8.8-48.1,27.4-61,68.4c6,4.5-8.8,0,6.5,0
	c0.2,0,0.9-0.2,1.3,0c-4.1,5-2.2,2.2-5.8,8.8c-35.4-9.5-113.7-79.8-122.7-106.1c38-15.5,54.1-48.3,57.6-98.8
	c-41.2,10.6-57.2,44.6-60.2,92.7c8.6-7.8,7.8-12.9,18.6-25l-16,31.1c-10.6-8.4-26.8-39.7-33-52c-9.7-19.6-21.4-42.9-25.4-65.8
	c10.3-4.7,5.6-4.3,13.4-10.8l-8.9,15.7c35.2-8.4,50.5-36.7,56.5-77.9c-39.9,7.8-53.3,33-59.7,73.3c-1.7-2.2-2.1-2.2-3.9-6.5
	l-8.2-29.1c-24.4-106.5-8.9-178.2,18.3-276.9l21.6,1.1l-18.3,5.4c22.2,17.9,53.1,8.8,65.4-9.1c-25.9-25.4-42.9-9.9-67.1,0.7
	c6.5-25,24.8-57.4,36.9-76.6c2.6,1.9,1.5,2.2,6.9,3.4c4.5,1.1,7.3,0.7,11.7,0.9c-1.7,0.2-6.7-0.2-8.9,0.4c-11.9,3-4.1,0-9.9,4.7
	c22.4,9.3,30.2,13.8,51.3-2.1c-18.5-17.5-21.4-20.3-51.1-7.5c5.8-12.1,9.7-20.5,20.1-28.2c12.5,17,25,17.9,47,8.8
	c-8.4-18.8-21.1-18.6-44.7-14.4l8.4-12.5c-4.1-2.6,0.9-0.4-4.1-0.4l-5.6,0.6c5.6-21.1,5.4-32.6-5.4-49c-11,9.9-11.6,33.7-7.3,47.2
	c0.9,3.2,1.5,3.7,2.8,6.3c0.4,0.7,1.9,3.2,2.2,3.9c0.2,0.6,0.9,1.5,1.1,1.9s0.7,1.1,1.1,1.9l-10.8,14.2c-3.9,4.3-1.7,2.2-5.8,5.6
	c4.5-27.4,3-38.2-8.4-58.4c-11.9,14.7-11,41.8-0.6,61.2c0.4,0.7,1.9,3.2,2.2,3.9l2.1,3.9c-64.1,89.5-84.3,230.4-63,342.9
	c8.2,43.4,19.2,69.9,32.6,108.9c-13.1-7.6-18.3-21.8-35.2-29.8c-18.6-8.8-37.7-1.9-53.3,4.3c11.6,26.8,45.3,51.6,87.6,36.5
	l-52.8-23.5c9.7,2.1,19.4,6.2,28.9,9.1c10.3,3.2,23.1,5.4,28.2,11C300.3,619,323.4,665.7,324.5,669.2l-11.9-6.9
	c-44.6-30.8-57.2-14.9-88.4,3c28.2,47.9,83.3,21.6,99.6,16.8c-10.4-9.1-53.5-11.9-65.1-12.1C275.3,669.4,312.4,675,324.5,669.2
	L324.5,669.2z M310.7,200.3c7.6-8.4,16.8-13.8,29.1-13.6c12.1,0.2,21.6,8.6,27.6,12.7c-3.7,5.6-2.8,6-11.4,10.6
	c-15.7,8.8-30.9,6.3-44.4-4.1l12.7-4.1c3.7-0.4,10.6-0.4,14.7-0.4L310.7,200.3L310.7,200.3z M300.3,193.6
	c-18.6-10.4-24.2-52.6-12.1-69.9c9.1,6.2,15.7,16.6,17.5,31.1C307.8,169.9,306.1,183.7,300.3,193.6L300.3,193.6z M280.4,234.4
	c-11.6-5.6-19.2-18.5-23.3-30.9c-4.7-14.2-5.4-29.3-3.4-44.6c24.6,4.5,30.6,38.8,31.5,72c-7.6-6.9-8-10.4-11.6-21.1L280.4,234.4
	L280.4,234.4z M279.6,292.4c8-11,16.4-20.5,31.3-24.4c14.9-3.9,30.4,1.5,38.6,10.8c-20.3,24.8-31.5,29.6-71.6,21.8
	c9.7-9.1,16-6.7,28.3-12.5L279.6,292.4L279.6,292.4z M269.5,348.5c3.9-8.4,17.5-21.3,28.9-25.9c15.5-6.3,29.3,0.9,42.1,4.8
	c-15.7,34.7-44.9,32.6-71.4,28l12.3-7.6c4.1-1.7,8.4-2.8,12.3-5.2L269.5,348.5L269.5,348.5z M265.3,406.9
	c14.4-29.8,35.8-40.8,67.7-32.8c-6.2,24.2-33.4,47-66,39.5c7.5-8.6,23.1-16.6,32.8-21.4L265.3,406.9L265.3,406.9z M251.6,342.5
	c-11-4.1-23.9-17.5-30.2-30.6c-7.1-14.4-8.6-31.7-9.3-48.8C243.4,273,259.3,308.4,251.6,342.5L251.6,342.5z M247.7,405.9
	c-30.6-10.8-41-33.2-47-71.4c28.2-1.9,43.3,29.6,49,57.1L247.7,405.9L247.7,405.9z M263.4,288.5c-23.9-16.2-38-41.6-34.1-82.8
	c28.9,11.2,37.5,37.1,38.2,77.2L263.4,288.5L263.4,288.5z M254.3,473.8c-0.9,0.4-2.4,1.9-3,2.1l-4.5,2.4
	c-23.1,6.5-46.4-34.3-52.8-65.3C233.9,414.9,243.3,441,254.3,473.8L254.3,473.8z M269.4,482.9c11.9-29.1,26.3-57.1,67.3-51.5
	c-10.1,34.7-25.9,54.3-64.7,57.8c6.2-11,6.9-5.4,13.2-15.8C276.3,480,279.8,479.2,269.4,482.9L269.4,482.9z M400.8,72
	c9.5-6.3,5.8-5.6,16.8-9.9c5.2,14.9,16.4,21.3,38.8,18.5c-3.7-16.8-9.5-16.6-22.9-24.1c18.3-2.4,24.8-12.1,27.6-29.3
	c-25.9-7.6-24.4,6.2-35.6,17.7c1.9-7.3,3.4-11.4,3.5-19.2c0.4-11.4-1.5-14.2-6.3-19.4c-16,17.7-11.9,33.6-7.1,54.8
	C406.6,64.9,405.5,64.6,400.8,72c-7.6-12.9,8.2-2.1-1.3-53.9c-20.3,14.5-15.3,41.6-6.9,60.8c-8.6,5.2-11,9.5-19.4,14.5
	c4.3-13.8,9.5-28.2,4.1-44c-3.2-9.1-2.4-6.7-7.8-11.6c-9.9,19.6-12.3,32.4-5.6,52.6c4.7,14.5,7.6,3.5-1.9,19
	c22-7.3,13.2,25.4,56.7,8.6c-6.7-15.7-20.1-25.7-44.7-15.8c4.3-9.7,11-13.6,17.5-21.3c10.6,8.6,14.2,24.6,44,17.2
	c4.1-17.2-14.7-24.6-37.7-20.5L400.8,72L400.8,72z M466.4,901.7c4.5-22.7,17.9-54.1,2.4-87.6l-8.6-12.1l-3.7-0.4
	c-8.9,8.4-12.7,41.2-12.1,52.9c0.7,11.4,7.8,33.7,15.5,41.8C466.2,903.2,457.7,895.9,466.4,901.7L466.4,901.7z M268.2,557.3
	c-36.5-5-58.4-30-65.6-66c39.7,0.7,59.7,22.7,68.4,58.9c-10.3-5.4-15.1-10.6-25-18.6C254.3,542.2,261.3,543.7,268.2,557.3
	L268.2,557.3z M310.2,607.9c6.7-41.9,15.8-73.6,56.1-81.8c-3.2,46.2-30.6,94.5-52.2,84.3L310.2,607.9L310.2,607.9z M423.4,744.9
	c3.9,1.7-3.7-2.1,3.7,1.9l13.1-5.2c3.5-3.5,5.8-5.6,9.1-9.1c5.6-6,10.4-13.2,14.2-22.4c8.9-21.6,9.5-42.3,8.9-66.7
	C433.4,659.7,424.1,692.9,423.4,744.9L423.4,744.9z M379.5,705l3.9,4.1c35.2-15.5,48.7-49.6,50-100.9
	C396.1,610.8,378.4,667,379.5,705L379.5,705z M316.3,829c12.3-46.1,31.7-66.4,83.7-70.1c-0.6,0.7-1.3,1.7-1.9,2.2l-19,17.2
	c-5.4,4.8-2.1,0.6-6.7,6.7c12.3-6.2,19.4-12.3,31.3-19.4C392.2,804.2,365.4,829,316.3,829L316.3,829z M403.8,900
	c37.5-34.7,32.6-81.5,28-120.1c-7.1,9.7-16.2,55-17.9,64.9l11-66.9c-11.7,10.1-23.5,32.1-28.5,50.7
	C391.8,846.1,390.4,884.9,403.8,900L403.8,900z M452.3,210.5L421.9,284l6.5-0.4l2.4,0.4l49,0.2l-0.9-3.2L452.3,210.5L452.3,210.5z
	 M544.2,284c13.4-0.2,29.3,0.2,40.1-0.4c3.7-18.3,6.5-16-0.2-30.6c-8-17.2-0.2-29.3-3.5-35.8l-7.6,11.7v-0.4L544.2,284L544.2,284z
	 M736,413.6c8.8,17,10.8,33,17.5,48.7l33.2-36.5c4.1-4.7,4.5-7.3,8.2-11.6c-8.8-4.7-14.9,0.6-16-11.7c-1.1-13.1,7.6-12.1,17.9-11.7
	c-7.6-44.4-17.7-23.9-55.2-43.8c-18.5-9.9-11.6-3.9-20.5-23.7l-29.5-60c-3.7,10.3-16.2,28.9-22.4,47.2c-3.2,9.7-1.9,15.5-4.3,21.8
	C698.7,347,719.6,381.7,736,413.6z"/>
</svg>
