<svg id="Слой_2" data-name="Слой 2" xmlns="http://www.w3.org/2000/svg" viewBox="0 0 421.44 499.59"><defs><style>.cls-1{fill:#c0c8d8}.cls-2{fill:#a9b9d3}.cls-3{fill:#3c5868}.cls-4{fill:#253746}.cls-5,.cls-6{fill:#dac8c2}.cls-5{stroke:#ccbbb1;stroke-width:7.2px}.cls-11,.cls-5{stroke-miterlimit:10}.cls-7{fill:#ccbbb1}.cls-8{fill:#212121}.cls-9{fill:#eadc36}.cls-10{fill:#324b5b}.cls-11{fill:#f7f7f7;stroke:#c64b4b;stroke-linecap:round;stroke-width:1.65px}.cls-12{font-size:33.01px;fill:#c64b4b;font-family:RobotoSlab-Regular,Roboto Slab}</style></defs><title>Masterm</title><g id="shirt"><path class="cls-1" d="M269.67 272.27l9.15 12s2 15.54 1.91 25.06c0 0 0 26.67-1.7 40.5-1.27 10.58-6.36 32.17-10.79 43.34s-9.94 24-14.44 32.22-15.59 26.89-15.59 26.89-7.05-37.19-9.55-48.78-7.55-35.19-7.55-35.19V331z" transform="translate(-.2)"/><path class="cls-2" d="M152.29 271.07l-9.27 12s-2.05 15.54-2 25.06c0 0 0 26.67 1.67 40.5 1.27 10.58 6.35 32.17 10.77 43.34s9.93 24 14.43 32.22 15.59 26.89 15.59 26.89 7.3-37.19 9.8-48.78 7.8-35.19 7.8-35.19v-37.26z" transform="translate(-.2)"/></g><g id="body"><path class="cls-3" d="M272.18 378.73l-61.49-27.64-63.14 27.64 62.31-55.28 62.32 55.28z"/><path class="cls-3" d="M208.71 497.75a19.47 19.47 0 0 1-13.13-9.42c-9.17-15.84 0-44.84.14-45.13l.06-.19 11.91-130.8 11.81-3.59v22.22l.14.33a19.23 19.23 0 0 0 4.86 6.83l30 27-19.74-10-15.43 12.4 17.8 89.66 2.39-4.24c.82-1.46 20.19-35.9 25.71-48.28 6.79-15.23 11.45-33.23 15.12-58.35 3.28-22.5 1.61-47.69.71-57.68 10.8 8.52 24.41 14.91 35.38 19.64 6.06 2.61 20.29 7.44 34.06 12.11 15.71 5.33 32 10.84 35.5 12.85 6.22 3.51 14 30.45 19.63 50.12l.11.39c5.56 19.32 12.45 63 13.86 72.15z" transform="translate(-.2)"/><path class="cls-4" d="M283.19 292.38c10.34 7.43 22.52 13.12 32.53 17.42 6.12 2.63 19.76 7.26 34.2 12.16 14.91 5.06 31.8 10.79 35.2 12.71 1 .58 3.92 3.38 8.84 17 3.43 9.47 6.89 21.49 9.94 32.09l.11.39c5.24 18.21 11.69 58.32 13.55 70.22l-208.82 41.54a17.43 17.43 0 0 1-11.6-8.47c-8.77-15.14.2-43.4.29-43.68l.12-.38v-.4l11.78-129.39 8.33-2.53v20.16l.28.66a21 21 0 0 0 5.31 7.5l19.92 17.94-6.57-3.32-2.07-1-1.81 1.45-13.67 11-1.7 1.37.43 2.14 16.64 83.82 1.89 9.54 4.77-8.48c.82-1.46 20.23-36 25.78-48.43 6.86-15.39 11.56-33.53 15.25-58.83 3-20.34 2-42.33 1.08-54.07m-4.37-8.07s3.93 32.84-.27 61.63-9.43 45.43-15 57.88-25.63 48.13-25.63 48.13l-16.62-83.96 13.67-11 30.8 15.61-40.06-36.08a17.32 17.32 0 0 1-4.4-6.21v-24.25L206 310.84l-12 131.8s-16.31 50.36 14.7 56.95l212.94-42.4s-7.87-52.18-14.17-74.07-13.68-47.68-20.58-51.58S330 312 317.14 306.49s-27.52-12.6-38.32-22.19z" transform="translate(-.2)"/><path class="cls-4" d="M156.07 371.57l40.06-36.08a17.32 17.32 0 0 0 4.4-6.21V305l8.68 24.76v169.83L.2 456s7.87-52.18 14.17-74.07 13.68-47.7 20.63-51.59 56.85-19.49 69.74-25S132.22 292.7 143 283.1c0 0-3.93 32.84.27 61.63s9.43 45.43 15 57.88 25.63 48.13 25.63 48.13l16.64-83.82-13.67-11z" transform="translate(-.2)"/></g><g id="face"><path class="cls-5" d="M275.5 235.08s-7.2 10.4-8.6 29-2.6 24.59-7 30.79-25.19 27-33 30.39-21.19 4.2-29.39 0-24.23-16.16-31.79-26.19c-9.8-13-10.11-26.85-12.6-38.39-2.83-13.16-5.4-36-5.4-36s28.79-4.2 35.79-4.6 50.78-1 54-1 18.59 2 23.79 4.4 14.2 11.6 14.2 11.6z" transform="translate(-.2)"/><path class="cls-6" d="M211.23 296.69a42.18 42.18 0 0 1-10.86-1.28c-12.11-3.66-23-14.09-28.38-20-6.82-7.44-23.46-31.53-29.65-49.14-5.8-16.52-7.08-54.81-7.26-61.47L154 132l129.3-7.17c.35 5.46 1.2 17 3 33.85 0 .68.06 1.41.1 2.19a193.56 193.56 0 0 1-2.84 46.24c-4 22.92-11.44 40.18-24.06 56-11.44 14.3-24 28.13-38 32.39a36.35 36.35 0 0 1-10.24 1.27z" transform="translate(-.2)"/><path class="cls-7" d="M280 128.58c.44 6.23 1.27 16.4 2.72 30.33q0 1 .1 2.1a190.24 190.24 0 0 1-2.82 45.44c-3.91 22.3-11.1 39.05-23.32 54.33-11.07 13.85-23.14 27.22-36.25 31.22a33.26 33.26 0 0 1-9.2 1.12 37.71 37.71 0 0 1-9.82-1.12c-11.28-3.41-21.61-13.35-26.76-19-6.65-7.25-22.88-30.74-28.9-47.9-5.38-15.34-6.76-50.63-7-59.36l17.47-30.3L280 128.58m6.73-7.58l-134.83 7.47-20.43 35.43s.89 44.79 7.49 63.58 23.79 43.18 30.39 50.38 17.64 17.26 30 21a45 45 0 0 0 11.9 1.43 40.22 40.22 0 0 0 11.29-1.43c14.48-4.39 27-17.59 39.79-33.59s20.63-33.85 24.79-57.58a201.68 201.68 0 0 0 2.79-49.31C287.34 134 286.72 121 286.72 121z" transform="translate(-.2)"/><path class="cls-8" d="M345 316.5s-19.12-19.83-24.54-52.25-8.59-86.44-31-115.94c-12.62-31.44-80.46-56-80.46-56l-77 54.48s-19.89 26.54-22.23 44.21-7 83.33-18.67 103-13.94 21.19-13.94 21.19S130.19 299 143 283.1l8.53-11.1s-2.19-20.75-4.62-27.37-10-19.25-12.25-38.44-1.31-10.69-1.31-10.69 48.92 1 81.08-17.5 43.92-37.39 43.92-37.39 9.55 25.39 17.15 35.06 12.1 13.27 12.1 13.27-1.5 15.65-3.25 26.06-8.08 27.83-11 33.67-3.68 23.6-3.68 23.6 7.44 11.07 10.77 13.94c8.4 7.25 28.51 17.49 38.79 21.67 6.3 2.55 25.77 8.62 25.77 8.62z" transform="translate(-.2)"/></g><g id="hat"><path class="cls-9" d="M352.15 152a10.42 10.42 0 0 1-5 12.41 12.41 12.41 0 0 1-5.65 1.43 13.59 13.59 0 0 1-7.71-2.47 8.88 8.88 0 0 1-3.28-9.77l6.8-23.42a1.22 1.22 0 0 0-.77-1.51 15.9 15.9 0 0 1 1.4-30.57 1.25 1.25 0 0 0 1-1.21V49.27a1.24 1.24 0 0 0-1.27-1.27L320 47.77a1.24 1.24 0 0 1-1.22-1.24 1.24 1.24 0 0 1 1-1.22l1.32-.24h21.51a1.24 1.24 0 0 1 1.24 1.24l.06 50.54a1.25 1.25 0 0 0 1 1.21 15.9 15.9 0 0 1 1.15 30.74 1.22 1.22 0 0 0-.79 1.54z" transform="translate(-.2)"/><path class="cls-3" d="M132.42 100.73L35.11 69.22l175.1-64.74 175.17 64.97-97.15 31.88-155.81-.6z"/><path class="cls-4" d="M210.41 9l162.44 60.21-85.08 27.91-154.48-.59L48.13 69 210.41 9m.08-9L26.11 68v2.7l105.71 34.19 157.44.6 105.85-34.6v-2.55L210.49 0z" transform="translate(-.2)"/><path class="cls-10" d="M285.23 139.31c-9.63-5.37-30.34-11.6-74.65-12h-3.54c-41.16 0-61.26 6.58-70.74 11.83l.85-57.5c1.63-3.13 14.12-22.09 77.36-22.09 52.1 0 67.68 18.14 70.41 22z" transform="translate(-.2)"/><path class="cls-4" d="M214.52 64c28.91 0 45.75 5.59 54.78 10.39 6.48 3.44 9.9 6.82 11.41 8.64l.27 49.73-1.07-.44c-15.22-5.82-38.54-8.92-69.31-9.2h-3.57c-34.32 0-54.6 4.57-66.45 9.39l.73-49.83c.84-1.18 3.34-4 8.9-7.2 9.31-5.29 28-11.47 64.28-11.47h-.39m.39-9C140.75 55 133 80.56 133 80.56l-1 67.05s10.8-16.16 75.07-16.16h3.5c71.77.64 78.94 16.8 78.94 16.8l-.37-68.14S276.52 55 214.52 55z" transform="translate(-.2)"/></g><g id="mag"><path class="cls-11" d="M334.51 381.18l1.87-2.31 1.49 2.58 2.22-2 1.06 2.79 2.5-1.63.62 2.92 2.73-1.21.15 2.97 2.88-.77-.31 2.97 2.96-.32-.77 2.88 2.98.16-1.21 2.72 2.91.62-1.62 2.5 2.78 1.07-1.99 2.21 2.58 1.49-2.32 1.88 2.32 1.87-2.58 1.49 1.99 2.22-2.78 1.07 1.62 2.5-2.91.62 1.21 2.72-2.98.15.77 2.88-2.96-.31.31 2.97-2.88-.78-.15 2.98-2.73-1.21-.62 2.91-2.5-1.62-1.06 2.78-2.22-1.99-1.49 2.58-1.87-2.32-1.88 2.32-1.49-2.58-2.21 1.99-1.07-2.78-2.5 1.62-.62-2.91-2.73 1.21-.15-2.98-2.88.78.31-2.97-2.96.31.77-2.88-2.98-.15 1.22-2.72-2.92-.62 1.62-2.5-2.78-1.07 2-2.22-2.59-1.49 2.32-1.87-2.32-1.88 2.59-1.49-2-2.21 2.78-1.07-1.62-2.5 2.92-.62-1.22-2.72 2.98-.16-.77-2.88 2.96.32-.31-2.97 2.88.77.15-2.97 2.73 1.21.62-2.92 2.5 1.63 1.07-2.79 2.21 2 1.49-2.58 1.88 2.31z"/><text class="cls-12" transform="translate(319.09 414.82)">М</text></g></svg>