<svg id="Layer_1" xmlns="http://www.w3.org/2000/svg" viewBox="0 0 1400 980"><style>.st0{fill:#fff}</style><path class="st0" d="M749.6 671.4c35.1 73.3 85.9 106.3 6.3 141.7s11.9 147.1-35.1 160.7c-47 13.4 8.8-93.2-29.5-138-38.2-44.9 131.3-55.9-24.6-126.6s-32.6-46.8-37.8-74.2c-30.9-44.7-5.4-82-6.3-96.8l-.6.6c-12.9-30.8-28.3-62.8-25.9-97 2.1-29.8 5.6-22.2-1.3-54.1-3-14.2-9.7-40.3-8.4-52.9-3.2-4.3-2.1-12.5-2.8-19.6-10.6-5.8-33.4-.6-43.8-31.3h1.3l33.9-65.1.7-3.7-44.2-18.1-3.4 7.5c-1.3 3.5-.7 4.5-2.6 8.6l-16.4.4c-1.7-6.3-2.1-11.4-6-16-12.9-.2-33.9 1.7-42.1-1.9l-6.5 11.7 16.6 43.8c4.1 5.8 6.3 16 8.6 22.2 6 17 4.5 8.6 23.1 11.9-17.9 36-80.5 38.2-90.8-.7l6.9-.4 32.1-77.9-.2-.4c-9.3-8.4-7.5-22.7 17.2-14.9 12.9 4.1 31.7 1.5 46.2 1.9.9-18.6-25.4-57.1-28.7-95.3-3.2-37.8 40.3-43.6 46.8-16.2 1.3 5.8 2.4 10.3-.9 15.1-3.5 5-7.6 2.8-10.6 5.8.2 25.4-1.3 21.6 9.9 41.2 6 10.4 11 25.5 22.9 30.6 13.1 5.4 28 7.5 42.1 9.5 16 2.2 31.3 11.7 40.3 11.4 4.8-8 7.6-11.6.7-19.4l-16.6-16.6c-11.7-10.1-12.7-11.6-19.2-22.9-11.2-20.1 19-71.6 48.3-73.1 24.2-1.3 45.9 20.9 54.1 31.9 30 39.2 0 38.4-.2 63.9 11 8.8 17.3 7.5 22.7 15.8.7 12.9-3.9 11-10.3 19.9 8.2 4.3 21.3 6.7 23.9 16.6 3.5 12.9-8 21.1-14.4 26.5 10.1 25.2 16.4 62.1 33.4 78.7l70.8 41.9c5.8-6.5 4.7-10.6 14.5-11.9 10.1-1.5 16.2 3.4 19 8.9 7.8 15.8-5.6 19.2-14 26.3 4.7 4.8 6.3 9.1 8.6 16.2-4.8 3.7-3 1.7-12.7 1.3-.2 8.4-1.9 16.2.4 23.1 2.2 6.9 8.9 9.5.7 19.9-3.9 4.8-12.1 7.1-17.7 1.9-5.2-5-2.8-10.8-8-18.1-9.3 2.2-6.5 4.5-18.8 18.8-7.8 9.1-10.1 13.4-17.7 22l-17.2 20.7c-.4.6-3.2 5.8-3.2 5.8-1.3 6 .2 3.4.9 9.7-.6 3.7-2.6 1.9-3.5 5.6 11 15.8 11.2 15.8 4.8 27.2 3.7 6.5 6.3 14 7.8 22 10.8 35.6-67.3 22.6-23.5 113.9zm293.9-2.2c12.1 5.8 49.2.2 66 .7-11.6.2-54.6 3-65.1 12.1 16.2 4.8 71.4 30.9 99.6-16.8-31.1-17.9-43.8-33.7-88.4-3l-12.1 7c1.1-3.5 24.2-50.2 26.8-52.9 5-5.6 17.9-7.6 28.2-11 9.5-3 19.2-6.9 28.9-9.1l-52.8 23.5c42.3 15.1 76.1-9.9 87.6-36.5-15.7-6.2-34.7-13.1-53.3-4.3-17 8-22.2 22.4-35.2 29.8 13.4-39 24.4-65.4 32.6-108.9 21.3-112.4 1.1-253.4-63-342.9l2.1-3.9c.4-.7 1.7-3.2 2.2-3.9 10.4-19.4 11.4-46.4-.6-61.2-11.4 20.3-13.1 30.9-8.4 58.4-4.1-3.5-1.9-1.3-5.8-5.6l-10.8-14.2c.4-.6.9-1.5 1.1-1.9s.9-1.3 1.1-1.9c.4-.7 1.7-3 2.2-3.9 1.3-2.6 1.7-3.2 2.8-6.3 4.3-13.4 3.7-37.3-7.3-47.2-10.8 16.2-11 28-5.4 49l-5.6-.6c-5 0 0-2.2-4.1.4l8.4 12.5c-23.7-4.1-36.4-4.3-44.7 14.4 22 9.1 34.7 8.2 47-8.8 10.4 7.8 14.5 16.2 20.1 28.2-29.6-12.9-32.6-10.1-51.1 7.5 21.3 15.8 29.1 11.2 51.3 2.1-5.6-4.8 2.1-1.9-9.9-4.7-2.2-.6-7.3-.2-8.9-.4 4.5-.2 7.3.2 11.7-.9 5.2-1.3 4.1-1.5 6.9-3.4 12.3 19 30.6 51.6 36.9 76.6-24.4-10.6-41.4-26.1-67.1-.7 12.3 17.9 43.3 27 65.4 9.1l-18.3-5.4 21.6-1.1c27.4 98.8 42.7 170.4 18.3 276.9l-8.4 29.1c-2.1 4.3-2.2 4.3-3.9 6.5-6.3-40.5-19.8-65.4-59.7-73.3 6 41.2 21.3 69.5 56.5 77.9l-8.9-15.7c7.8 6.7 3.2 6.3 13.4 10.8-4.1 22.9-15.7 46.1-25.4 65.8-6.2 12.3-22.4 43.6-33 52l-16-31.1c10.8 12.1 10.3 17.2 18.6 25-3.2-48.1-19-82.2-60.4-92.7 3.7 50.5 19.8 83.3 57.6 98.8-8.9 26.3-87.3 96.4-122.7 106.1-3.5-6.5-1.7-3.7-5.8-8.8.4-.2 1.1 0 1.3 0 15.5 0 .7 4.5 6.5 0-12.9-41.2-16.8-59.7-61-68.4 7.3 43.3 22.2 66.9 58.7 77.4l-.9 13.4c10.8 6 22.2-2.8 32.3-9.3 39.7-24.8 67.5-57.8 72.9-60.8 7.5 9.3 36.7 15.3 45.9 20.9l-47.2-12.3c6.2 11.7 21.8 27.2 37.3 33.4 22.9 9.1 39.9 3.5 60.8-3.5-28.3-57.4-62.6-42.9-97-38.4 4.1-13.4 0-2.8 8.6-13.4l29-36.2zm13.8-468.9l-28.5 1.1c4.1 0 11.2-.2 14.7.4l12.7 4.1c-13.4 10.4-28.5 12.9-44.4 4.1-8.4-4.7-7.6-5-11.4-10.6 6-4.1 15.5-12.5 27.6-12.7 12.3-.2 21.6 5.2 29.3 13.6zm10.4-6.7c-6-9.9-7.5-23.9-5.4-38.8 2.1-14.5 8.4-25 17.5-31.1 12.1 17.3 6.7 59.4-12.1 69.9zm19.9 40.8l6.9-24.8c-3.5 10.6-4.1 14.2-11.6 21.1.9-33.2 6.9-67.3 31.5-72 1.9 15.3 1.1 30.4-3.4 44.6-4 12.5-11.8 25.5-23.4 31.1zm.8 58l-26.7-4.3c12.3 5.8 18.6 3.4 28.3 12.5-40.1 7.8-51.3 3-71.6-21.8 8.2-9.3 23.7-14.7 38.6-10.8 14.8 3.9 23.4 13.4 31.4 24.4zm10.1 56.1l-24.2-6c3.9 2.4 8.4 3.5 12.3 5.2l12.3 7.6c-26.7 4.8-55.9 6.7-71.4-28 12.9-3.7 26.7-11.2 42.1-4.8 11.3 4.8 24.9 17.6 28.9 26zm4.1 58.4l-34.5-14.5c9.7 4.8 25.4 12.9 32.8 21.4-32.6 7.5-59.7-15.3-66-39.5 31.9-8.3 53.3 2.7 67.7 32.6zm13.8-64.4c-7.6-34.3 8.2-69.7 39.7-79.4-.9 17.2-2.4 34.5-9.3 48.8-6.6 13.1-19.6 26.7-30.4 30.6zm3.7 63.4l-2.2-14.4c5.8-27.4 21.1-58.9 49-57.1-5.8 38.3-16 60.7-46.8 71.5zm-15.5-117.4l-3.9-5.6c.7-40.3 9.3-66.2 38.2-77.2 3.7 41.2-10.4 66.6-34.3 82.8zm9.2 185.3c10.8-33 20.3-59.1 60.2-60.8-6.3 31.1-29.8 71.8-52.8 65.3l-4.5-2.4c-.3-.2-2-1.5-2.9-2.1zm-15.2 9.1c-10.4-3.7-6.9-3.2-15.8-9.5 6.3 10.4 7.1 4.8 13.2 15.8-38.6-3.5-54.6-23.1-64.7-57.8 41.1-5.3 55.4 22.5 67.3 51.5zM967.2 72c-9.5-6.3-5.8-5.6-16.8-9.9-5.2 14.9-16.4 21.3-38.8 18.5 3.7-16.8 9.5-16.6 22.9-24.1-18.3-2.4-24.8-12.1-27.6-29.3 25.9-7.6 24.4 6.2 35.8 17.7-1.9-7.3-3.4-11.4-3.5-19.2-.4-11.4 1.5-14.2 6.3-19.4 16 17.7 11.9 33.6 7.1 54.8 8.8 3.8 9.9 3.5 14.6 10.9 7.6-12.9-8.2-2.1 1.3-53.9 20.3 14.5 15.3 41.6 6.9 60.8 8.6 5.2 11 9.5 19.4 14.5-4.3-13.8-9.5-28.2-4.1-44 3.2-9.1 2.4-6.7 7.8-11.6 9.9 19.6 12.3 32.4 5.6 52.6-4.7 14.5-7.6 3.5 1.9 19-22-7.3-13.2 25.4-56.7 8.6 6.7-15.7 20.1-25.7 44.7-15.8-4.3-9.7-11-13.6-17.5-21.3-10.6 8.6-14.2 24.6-44 17.2-4.1-17.2 14.7-24.6 37.7-20.5l-3-5.6zm-65.6 829.7c-4.5-22.7-17.9-54.1-2.4-87.6l8.6-12.1 3.7-.4c8.9 8.4 12.7 41.2 12.1 52.9-.7 11.4-7.8 33.7-15.5 41.8-6.3 6.9 2.2-.4-6.5 5.4zm198.2-344.4c6.9-13.4 13.8-15.1 22.2-25.7-9.9 8-14.5 13.2-25 18.6 8.8-36.2 28.5-58.2 68.4-58.9-7.3 36-29.1 61-65.6 66zm-42 50.6l-3.9 2.6c-21.6 10.1-49-38-52.2-84.3 40.3 8 49.4 39.7 56.1 81.7zm-113.2 137c-3.9 1.7 3.7-2.1-3.7 1.9l-13.1-5.2c-3.5-3.5-5.8-5.6-9.1-9.1-5.6-6-10.4-13.2-14.2-22.4-8.9-21.6-9.5-42.3-8.9-66.7 39 16.3 48.3 49.5 49 101.5zm43.9-39.9l-3.9 4.1c-35.2-15.5-48.7-49.6-50-100.9 37.3 2.6 55 58.8 53.9 96.8zm63.2 124c-49 0-75.9-25-87.6-63.4 12.1 7.1 19 13.4 31.3 19.4-4.7-6-1.3-1.9-6.7-6.7l-19-17.2c-.6-.6-1.3-1.5-1.9-2.2 52.2 3.7 71.6 24 83.9 70.1zm-87.5 71c-37.5-34.7-32.6-81.5-28-120.1 7.1 9.7 16.2 55 17.9 64.9l-11-66.9c11.7 10.1 23.5 32.1 28.5 50.7 4.6 17.5 6 56.3-7.4 71.4zM324.5 669.2l27.8 35.8c8.6 10.6 4.5 0 8.6 13.4-34.3-4.5-68.6-19.2-97 38.4 20.9 7.3 37.8 12.9 60.8 3.5 15.5-6.2 31.1-21.8 37.3-33.4l-47.2 12.3c9.3-5.6 38.4-11.6 45.9-20.9 5.4 3 33.2 36 72.9 60.8 10.3 6.3 21.6 15.1 32.3 9.3L465 775c36.5-10.4 51.5-34.1 58.7-77.4-44.2 8.8-48.1 27.4-61 68.4 6 4.5-8.8 0 6.5 0 .2 0 .9-.2 1.3 0-4.1 5-2.2 2.2-5.8 8.8C429.3 765.3 351 695 342 668.7c38-15.5 54.1-48.3 57.6-98.8-41.2 10.6-57.2 44.6-60.2 92.7 8.6-7.8 7.8-12.9 18.6-25l-16 31.1c-10.6-8.4-26.8-39.7-33-52-9.7-19.6-21.4-42.9-25.4-65.8 10.3-4.7 5.6-4.3 13.4-10.8l-8.9 15.7c35.2-8.4 50.5-36.7 56.5-77.9-39.9 7.8-53.3 33-59.7 73.3-1.7-2.2-2.1-2.2-3.9-6.5l-8.2-29.1c-24.4-106.5-8.9-178.2 18.3-276.9l21.6 1.1-18.3 5.4c22.2 17.9 53.1 8.8 65.4-9.1-25.9-25.4-42.9-9.9-67.1.7 6.5-25 24.8-57.4 36.9-76.6 2.6 1.9 1.5 2.2 6.9 3.4 4.5 1.1 7.3.7 11.7.9-1.7.2-6.7-.2-8.9.4-11.9 3-4.1 0-9.9 4.7 22.4 9.3 30.2 13.8 51.3-2.1-18.5-17.5-21.4-20.3-51.1-7.5 5.8-12.1 9.7-20.5 20.1-28.2 12.5 17 25 17.9 47 8.8-8.4-18.8-21.1-18.6-44.7-14.4l8.4-12.5c-4.1-2.6.9-.4-4.1-.4l-5.6.6c5.6-21.1 5.4-32.6-5.4-49-11 9.9-11.6 33.7-7.3 47.2.9 3.2 1.5 3.7 2.8 6.3.4.7 1.9 3.2 2.2 3.9.2.6.9 1.5 1.1 1.9s.7 1.1 1.1 1.9l-10.8 14.2c-3.9 4.3-1.7 2.2-5.8 5.6 4.5-27.4 3-38.2-8.4-58.4-11.9 14.7-11 41.8-.6 61.2.4.7 1.9 3.2 2.2 3.9l2.1 3.9c-64.1 89.5-84.3 230.4-63 342.9 8.2 43.4 19.2 69.9 32.6 108.9-13.1-7.6-18.3-21.8-35.2-29.8-18.6-8.8-37.7-1.9-53.3 4.3 11.6 26.8 45.3 51.6 87.6 36.5l-52.8-23.5c9.7 2.1 19.4 6.2 28.9 9.1 10.3 3.2 23.1 5.4 28.2 11 3.4 3.1 26.5 49.8 27.6 53.3l-11.9-6.9c-44.6-30.8-57.2-14.9-88.4 3 28.2 47.9 83.3 21.6 99.6 16.8-10.4-9.1-53.5-11.9-65.1-12.1 16.6-.6 53.7 5 65.8-.8zm-13.8-468.9c7.6-8.4 16.8-13.8 29.1-13.6 12.1.2 21.6 8.6 27.6 12.7-3.7 5.6-2.8 6-11.4 10.6-15.7 8.8-30.9 6.3-44.4-4.1l12.7-4.1c3.7-.4 10.6-.4 14.7-.4l-28.3-1.1zm-10.4-6.7c-18.6-10.4-24.2-52.6-12.1-69.9 9.1 6.2 15.7 16.6 17.5 31.1 2.1 15.1.4 28.9-5.4 38.8zm-19.9 40.8c-11.6-5.6-19.2-18.5-23.3-30.9-4.7-14.2-5.4-29.3-3.4-44.6 24.6 4.5 30.6 38.8 31.5 72-7.6-6.9-8-10.4-11.6-21.1l6.8 24.6zm-.8 58c8-11 16.4-20.5 31.3-24.4 14.9-3.9 30.4 1.5 38.6 10.8-20.3 24.8-31.5 29.6-71.6 21.8 9.7-9.1 16-6.7 28.3-12.5l-26.6 4.3zm-10.1 56.1c3.9-8.4 17.5-21.3 28.9-25.9 15.5-6.3 29.3.9 42.1 4.8-15.7 34.7-44.9 32.6-71.4 28l12.3-7.6c4.1-1.7 8.4-2.8 12.3-5.2l-24.2 5.9zm-4.2 58.4c14.4-29.8 35.8-40.8 67.7-32.8-6.2 24.2-33.4 47-66 39.5 7.5-8.6 23.1-16.6 32.8-21.4l-34.5 14.7zm-13.7-64.4c-11-4.1-23.9-17.5-30.2-30.6-7.1-14.4-8.6-31.7-9.3-48.8 31.3 9.9 47.2 45.3 39.5 79.4zm-3.9 63.4c-30.6-10.8-41-33.2-47-71.4 28.2-1.9 43.3 29.6 49 57.1l-2 14.3zm15.7-117.4c-23.9-16.2-38-41.6-34.1-82.8 28.9 11.2 37.5 37.1 38.2 77.2l-4.1 5.6zm-9.1 185.3c-.9.4-2.4 1.9-3 2.1l-4.5 2.4c-23.1 6.5-46.4-34.3-52.8-65.3 39.9 1.9 49.3 28 60.3 60.8zm15.1 9.1c11.9-29.1 26.3-57.1 67.3-51.5-10.1 34.7-25.9 54.3-64.7 57.8 6.2-11 6.9-5.4 13.2-15.8-8.9 6.6-5.4 5.8-15.8 9.5zM400.8 72c9.5-6.3 5.8-5.6 16.8-9.9 5.2 14.9 16.4 21.3 38.8 18.5-3.7-16.8-9.5-16.6-22.9-24.1 18.3-2.4 24.8-12.1 27.6-29.3-25.9-7.6-24.4 6.2-35.6 17.7 1.9-7.3 3.4-11.4 3.5-19.2.4-11.4-1.5-14.2-6.3-19.4-16 17.7-11.9 33.6-7.1 54.8-9 3.8-10.1 3.5-14.8 10.9-7.6-12.9 8.2-2.1-1.3-53.9-20.3 14.5-15.3 41.6-6.9 60.8-8.6 5.2-11 9.5-19.4 14.5 4.3-13.8 9.5-28.2 4.1-44-3.2-9.1-2.4-6.7-7.8-11.6-9.9 19.6-12.3 32.4-5.6 52.6 4.7 14.5 7.6 3.5-1.9 19 22-7.3 13.2 25.4 56.7 8.6-6.7-15.7-20.1-25.7-44.7-15.8 4.3-9.7 11-13.6 17.5-21.3 10.6 8.6 14.2 24.6 44 17.2 4.1-17.2-14.7-24.6-37.7-20.5l3-5.6zm65.6 829.7c4.5-22.7 17.9-54.1 2.4-87.6l-8.6-12.1-3.7-.4c-8.9 8.4-12.7 41.2-12.1 52.9.7 11.4 7.8 33.7 15.5 41.8 6.3 6.9-2.2-.4 6.5 5.4zM268.2 557.3c-36.5-5-58.4-30-65.6-66 39.7.7 59.7 22.7 68.4 58.9-10.3-5.4-15.1-10.6-25-18.6 8.3 10.6 15.3 12.1 22.2 25.7zm42 50.6c6.7-41.9 15.8-73.6 56.1-81.8-3.2 46.2-30.6 94.5-52.2 84.3l-3.9-2.5zm113.2 137c3.9 1.7-3.7-2.1 3.7 1.9l13.1-5.2c3.5-3.5 5.8-5.6 9.1-9.1 5.6-6 10.4-13.2 14.2-22.4 8.9-21.6 9.5-42.3 8.9-66.7-39 16.3-48.3 49.5-49 101.5zM379.5 705l3.9 4.1c35.2-15.5 48.7-49.6 50-100.9-37.3 2.6-55 58.8-53.9 96.8zm-63.2 124c12.3-46.1 31.7-66.4 83.7-70.1-.6.7-1.3 1.7-1.9 2.2l-19 17.2c-5.4 4.8-2.1.6-6.7 6.7 12.3-6.2 19.4-12.3 31.3-19.4-11.5 38.6-38.3 63.4-87.4 63.4zm87.5 71c37.5-34.7 32.6-81.5 28-120.1-7.1 9.7-16.2 55-17.9 64.9l11-66.9c-11.7 10.1-23.5 32.1-28.5 50.7-4.6 17.5-6 56.3 7.4 71.4zm48.5-689.5L421.9 284l6.5-.4 2.4.4 49 .2-.9-3.2-26.6-70.5zm91.9 73.5c13.4-.2 29.3.2 40.1-.4 3.7-18.3 6.5-16-.2-30.6-8-17.2-.2-29.3-3.5-35.8l-7.6 11.7v-.4L544.2 284zM736 413.6c8.8 17 10.8 33 17.5 48.7l33.2-36.5c4.1-4.7 4.5-7.3 8.2-11.6-8.8-4.7-14.9.6-16-11.7-1.1-13.1 7.6-12.1 17.9-11.7-7.6-44.4-17.7-23.9-55.2-43.8-18.5-9.9-11.6-3.9-20.5-23.7l-29.5-60c-3.7 10.3-16.2 28.9-22.4 47.2-3.2 9.7-1.9 15.5-4.3 21.8 33.8 14.7 54.7 49.4 71.1 81.3z"/></svg>