<svg id="Слой_2" data-name="Слой 2" xmlns="http://www.w3.org/2000/svg" viewBox="0 0 351.74981 416.81243"><defs><style>.cls-1{fill:#c0c8d8;}.cls-2{fill:#a9b9d3;}.cls-3{fill:#3c5868;}.cls-4{fill:#253746;}.cls-5,.cls-6{fill:#dac8c2;}.cls-5{stroke:#ccbbb1;stroke-width:6px;}.cls-11,.cls-5{stroke-miterlimit:10;}.cls-7{fill:#ccbbb1;}.cls-8{fill:#212121;}.cls-9{fill:#eadc36;}.cls-10{fill:#324b5b;}.cls-11{fill:#f7f7f7;stroke:#c64b4b;stroke-linecap:round;stroke-width:1.37606px;}.cls-12{font-size:27.52127px;fill:#c64b4b;font-family:Roboto Slab;}</style></defs><title>b</title><g id="shirt"><path class="cls-1" d="M299.39583,281l7.58333,10.03125s1.63542,12.95313,1.57292,20.89063c0,0-.05118,22.236-1.43229,33.75781-1.0573,8.82031-5.3099,26.81641-8.9974,36.12891S289.832,401.83138,286.082,408.66471s-12.99935,22.41764-12.99935,22.41764-5.79134-30.99951-7.87467-40.66618S259,361.08333,259,361.08333V330Z" transform="translate(-74.50019 -54.03001)"/><path class="cls-2" d="M201.38108,280l-7.69488,10.03125s-1.69119,12.95313-1.62869,20.89063c0,0,.02329,22.236,1.40441,33.75781,1.05729,8.82031,5.296,26.81641,8.98345,36.12891s8.28339,20.02279,12.03339,26.85612,12.99586,22.41764,12.99586,22.41764,6.01268-30.99951,8.096-40.66618S242,360.08333,242,360.08333V329Z" transform="translate(-74.50019 -54.03001)"/></g><g id="body"><polygon class="cls-3" points="227.062 315.72 175.804 292.678 123.166 315.72 175.114 269.637 227.062 315.72"/><path class="cls-3" d="M248.75049,469.31055a16.22958,16.22958,0,0,1-10.94434-7.85449c-7.64795-13.22461.042-37.376,0.12061-37.61816l0.05176-.16016,9.92383-109.03613,9.84766-2.99316V330.1748l0.11523,0.27734a16.03368,16.03368,0,0,0,4.0459,5.71191l25.002,22.51563-16.457-8.3418-12.8584,10.31152,14.83887,74.74512,1.98926-3.53418c0.68457-1.2168,16.83008-29.92969,21.43066-40.25,5.66016-12.69629,9.5459-27.69824,12.60059-48.64355,2.73438-18.75391,1.3418-39.75293.59668-48.083,8.998,7.10352,20.34277,12.43164,29.49414,16.36914,5.04883,2.17188,16.918,6.19922,28.39648,10.09277,13.09863,4.44434,26.64258,9.03906,29.59863,10.71,5.18262,2.92969,11.64258,25.3877,16.36035,41.78711l0.09277,0.32227c4.63281,16.10352,10.375,52.51563,11.55371,60.14355Z" transform="translate(-74.50019 -54.03001)"/><path class="cls-4" d="M310.83893,298.10526c8.61859,6.19666,18.77335,10.93622,27.11606,14.52551,5.10309,2.19553,16.4715,6.0524,28.50739,10.13577,12.42569,4.21561,26.50925,8.99362,29.34271,10.59515,0.84805,0.47934,3.26385,2.81708,7.37,14.1438,2.863,7.89761,5.74445,17.91425,8.28668,26.75174l0.09265,0.32214c4.36765,15.1828,9.74246,48.61389,11.29248,58.53928l-174.0713,34.657a14.529,14.529,0,0,1-9.66684-7.06342c-7.30763-12.62192.16917-36.17715,0.24507-36.41217l0.10342-.31909,0.03041-.334,9.817-107.8638,6.94536-2.11084V330.475l0.23077,0.55383a17.54435,17.54435,0,0,0,4.42676,6.25034l16.60709,14.955-5.51779-2.79663-1.72461-.87408-1.50842,1.20956-11.394,9.13651-1.4203,1.13889,0.35451,1.78574,13.87161,69.875,1.57922,7.955,3.97772-7.06784c0.68643-1.21973,16.86505-29.99139,21.4938-40.37491,5.71826-12.82742,9.63968-27.95148,12.71487-49.03854,2.47226-16.95273,1.651-35.28677.89767-45.07767m-3.64362-6.73026s3.27734,27.375-.22266,51.375-7.86133,37.875-12.48633,48.25-21.36813,40.125-21.36813,40.125L259.24658,361.25l11.394-9.13651,25.672,13.01151-33.39742-30.07516A14.43528,14.43528,0,0,1,259.25,329.875v-20.25L246.5,313.5l-10,109.875s-13.61087,41.992,12.23567,47.46744L426.25,435.5s-6.56251-43.5-11.81251-61.75-11.40624-39.75-17.15624-43-47.39062-16.25-58.14062-20.875-22.94531-10.5-31.94531-18.5h0Z" transform="translate(-74.50019 -54.03001)"/><path class="cls-4" d="M204.43769,364.12494l33.39743-30.07517a14.43526,14.43526,0,0,0,3.66507-5.17483h0v-20.25l7.23548,20.6394V470.84244L74.50019,434.49994s6.5625-43.5,11.8125-61.75,11.40625-39.75,17.15625-43,47.39063-16.25,58.14063-20.875,22.94531-10.5,31.94531-18.5c0,0-3.27734,27.375.22266,51.375s7.86133,37.875,12.48633,48.25,21.36816,40.125,21.36816,40.125l13.87158-69.875-11.394-9.1365Z" transform="translate(-74.50019 -54.03001)"/></g><g id="face"><path class="cls-5" d="M304.16667,250s-6,8.66667-7.16667,24.16667-2.16667,20.5-5.83333,25.66667-21,22.5-27.5,25.33333-17.66667,3.5-24.5,0-20.19932-13.47529-26.5-21.83333c-8.16667-10.83333-8.43073-22.38108-10.5-32-2.35982-10.96952-4.5-30-4.5-30s24-3.5,29.83333-3.83333,42.33333-.83333,45-0.83333,15.5,1.66667,19.83333,3.66667S304.16667,250,304.16667,250Z" transform="translate(-74.50019 -54.03001)"/><path class="cls-6" d="M250.59131,301.3584a35.20438,35.20438,0,0,1-9.05762-1.06348c-10.09229-3.04785-19.15283-11.74316-23.65576-16.65527-5.68311-6.19922-19.55713-26.2793-24.71387-40.9668-4.83594-13.7749-5.90039-45.68945-6.05078-51.23975l15.79932-27.40234,107.78369-5.97363c0.293,4.55518.998,14.17041,2.4668,28.22119q0.03516,0.84741.082,1.82568a161.29048,161.29048,0,0,1-2.36719,38.54443c-3.34961,19.1084-9.53418,33.49414-20.05371,46.64453-9.541,11.92578-19.9834,23.4502-31.69531,27.00293a30.26731,30.26731,0,0,1-8.53711,1.0625h-0.00049Z" transform="translate(-74.50019 -54.03001)"/><path class="cls-7" d="M307.901,161.21672c0.369,5.18958,1.05658,13.67476,2.26855,25.2803q0.03442,0.81459.07947,1.74677a158.59116,158.59116,0,0,1-2.32556,37.88687c-3.25809,18.5858-9.25421,32.55312-19.442,45.28783-9.23825,11.54782-19.29367,22.69089-30.22327,26.00653a27.72412,27.72412,0,0,1-7.66737.93283,31.43306,31.43306,0,0,1-8.18967-.935c-9.40674-2.84061-18.0166-11.12506-22.31157-15.81049-5.54243-6.04626-19.07072-25.62161-24.095-39.93314-4.48857-12.78561-5.63866-42.20236-5.85841-49.48351l14.56419-25.25964L307.901,161.21672m5.614-6.32033L201.125,161.125l-17.03183,29.53943S184.83334,228,190.33334,243.66666s19.83333,36,25.33333,42,14.70309,14.39056,25,17.5a37.468,37.468,0,0,0,9.92415,1.19122A33.52681,33.52681,0,0,0,260,303.16666c12.075-3.66312,22.5-14.66666,33.16666-28s17.19888-28.21779,20.66669-48a168.12346,168.12346,0,0,0,2.32321-41.10672c-2.125-20.312-2.64151-31.16354-2.64151-31.16354h0Z" transform="translate(-74.50019 -54.03001)"/><path class="cls-8" d="M184,193.75s46.24382,1.75,73.49382-7.5,32.37809-15,32.37809-15C310.25,196,316.5,194.437,316.5,194.437l-0.68751-16.77037S311.125,163.125,252.33333,163c-68.23174-.14507-67.81,13.41578-67.81,13.41578Z" transform="translate(-74.50019 -54.03001)"/></g><g id="hat"><path class="cls-9" d="M368.05744,180.71477a8.68435,8.68435,0,0,1-4.20509,10.346,10.34744,10.34744,0,0,1-4.70651,1.18922,11.33124,11.33124,0,0,1-6.42856-2.06315,7.40639,7.40639,0,0,1-2.73557-8.14043l5.67268-19.52433a1.01867,1.01867,0,0,0-.64009-1.25508,13.25453,13.25453,0,0,1,1.16384-25.48628,1.04285,1.04285,0,0,0,.82734-1.0074V95.09927a1.03121,1.03121,0,0,0-1.01583-1.0311l-14.72381-.21969a1.03121,1.03121,0,0,1-1.01583-1.0311h0a1.03121,1.03121,0,0,1,.84492-1.01425l1.10437-.20284a1.03121,1.03121,0,0,1,.18629-0.017h17.75114a1.03121,1.03121,0,0,1,1.03121,1.02995l0.05176,42.12777a1.04278,1.04278,0,0,0,.83854,1.00829,13.25427,13.25427,0,0,1,.96256,25.62527,1.01931,1.01931,0,0,0-.66139,1.28653Z" transform="translate(-74.50019 -54.03001)"/><polygon class="cls-3" points="110.559 83.972 29.44 57.7 175.404 3.732 321.43 57.895 240.447 84.468 110.559 83.972"/><path class="cls-4" d="M249.90248,61.49458l135.418,50.22837-70.92657,23.27279-128.77562-.49152L114.62443,111.5119,249.90248,61.49458M249.40628,54.03L96,110.75V113l88.25,28.5L315.125,142,403,113.125V111L249.40628,54.03h0Z" transform="translate(-74.50019 -54.03001)"/><path class="cls-10" d="M312.27148,170.16357c-8.03027-4.47754-25.291-9.668-62.23389-9.99707-0.998-.00879-1.97705-0.01318-2.9458-0.01318-34.31689,0-51.06689,5.48193-58.97412,9.86328l0.70557-47.96094c1.24756-2.41992,11.49023-18.38916,64.48633-18.38916,43.98438,0.00439,56.52637,15.09619,58.69531,18.31152Z" transform="translate(-74.50019 -54.03001)"/><path class="cls-4" d="M253.3327,107c38.772,0,52.01187,12.332,55.17935,16.12308l0.2287,41.515c-0.29211-.11748-0.59067-0.2138-0.89526-0.33033-12.69022-4.85561-32.12921-7.42295-57.77689-7.65125-1.00854-.009-1.99808-0.00816-2.97728-0.00816-28.60973,0-45.51584,3.81039-55.3918,7.83264L192.30876,122.97C194.4193,119.85725,205.978,107,253.30923,107H253m0.30922-7c-61.47906,0-67.97589,21.25-67.97589,21.25l-0.821,55.86784s9.00032-13.48509,62.579-13.48509c0.95866,0,1.92744.0147,2.91486,0.02349,59.82565,0.53253,65.8063,14.00521,65.8063,14.00521L315.5,120.91406S305.01318,100,253.33333,100h-0.02411Z" transform="translate(-74.50019 -54.03001)"/></g><g id="mag"><polygon class="cls-11" points="279.021 317.764 280.584 315.833 281.826 317.985 283.673 316.322 284.563 318.642 286.647 317.288 287.163 319.719 289.433 318.708 289.563 321.189 291.963 320.546 291.703 323.017 294.174 322.757 293.531 325.157 296.012 325.287 295.001 327.557 297.432 328.073 296.078 330.157 298.398 331.047 296.735 332.894 298.887 334.136 296.956 335.699 298.887 337.263 296.735 338.505 298.398 340.351 296.078 341.242 297.432 343.325 295.001 343.842 296.012 346.112 293.531 346.241 294.174 348.641 291.703 348.381 291.963 350.853 289.563 350.209 289.433 352.691 287.163 351.68 286.647 354.11 284.563 352.757 283.673 355.077 281.826 353.414 280.584 355.566 279.021 353.634 277.457 355.566 276.215 353.414 274.368 355.077 273.478 352.757 271.394 354.11 270.878 351.68 268.608 352.691 268.479 350.209 266.078 350.853 266.338 348.381 263.867 348.641 264.511 346.241 262.029 346.112 263.04 343.842 260.609 343.325 261.963 341.242 259.643 340.351 261.306 338.505 259.154 337.263 261.085 335.699 259.154 334.136 261.306 332.894 259.643 331.047 261.963 330.157 260.609 328.073 263.04 327.557 262.029 325.287 264.511 325.157 263.867 322.757 266.338 323.017 266.078 320.546 268.479 321.189 268.608 318.708 270.878 319.719 271.394 317.288 273.478 318.642 274.368 316.322 276.215 317.985 277.457 315.833 279.021 317.764"/><text class="cls-12" transform="translate(266.16583 345.80105)">М</text></g></svg>